<svg width="30" height="26" viewBox="0 0 30 26" fill="none" xmlns="http://www.w3.org/2000/svg">
<path d="M9.20939 17.1006C9.94697 16.3096 10.8388 15.6782 11.8298 15.2452C12.8209 14.8122 13.8909 14.5872 14.9724 14.5834C16.0539 14.5797 17.1246 14.7976 18.1186 15.2237C19.1127 15.6497 20.0092 16.2748 20.7523 17.0606M5.73657 12.2779C6.9167 11.0123 8.34362 10.002 9.92929 9.30927C11.515 8.6165 13.2255 8.25615 14.9559 8.25011C16.6863 8.24407 18.3987 8.59279 19.9892 9.27447C21.5797 9.95615 23.0144 10.9566 24.2034 12.2138M1.10408 7.95921C2.87428 6.06091 5.01465 4.54544 7.39317 3.50629C9.77168 2.46714 12.3367 1.92583 14.9323 1.91677C17.5279 1.90771 20.0996 2.4308 22.4854 3.45331C24.8711 4.47583 27.0224 5.97725 28.8058 7.86314M15 24.0834C14.1255 24.0834 13.4167 23.3746 13.4167 22.5001C13.4167 21.6257 14.1255 20.9168 15 20.9168C15.8744 20.9168 16.5833 21.6257 16.5833 22.5001C16.5833 23.3746 15.8744 24.0834 15 24.0834Z" stroke="white" stroke-width="2" stroke-linecap="round" stroke-linejoin="round"/>
</svg>
